<svg class="svg-icon" style="width: 1em; height: 1em;vertical-align: middle;fill: currentColor;overflow: hidden;" viewBox="0 0 1024 1024" version="1.1" xmlns="http://www.w3.org/2000/svg"><path d="M548.571429 425.636571V420.571429a36.571429 36.571429 0 0 1 20.224-32.713143l146.285714-73.142857a36.571429 36.571429 0 0 1 32.694857 0l146.285714 73.142857A36.571429 36.571429 0 0 1 914.285714 420.571429v164.571428a36.571429 36.571429 0 0 1-20.224 32.713143l-146.285714 73.142857a36.571429 36.571429 0 0 1-32.694857 0l-146.285714-73.142857A36.571429 36.571429 0 0 1 548.571429 585.142857v-117.394286l-48.548572-27.739428L365.714286 507.172571v46.226286l144.347428 72.173714A36.571429 36.571429 0 0 1 530.285714 658.285714v164.571429a36.571429 36.571429 0 0 1-20.224 32.713143l-146.285714 73.142857a36.571429 36.571429 0 0 1-32.694857 0l-146.285714-73.142857A36.571429 36.571429 0 0 1 164.571429 822.857143v-164.571429a36.571429 36.571429 0 0 1 20.224-32.713143L329.142857 553.398857v-46.226286l-144.347428-72.173714A36.571429 36.571429 0 0 1 164.571429 402.285714v-164.571428a36.571429 36.571429 0 0 1 20.224-32.713143l146.285714-73.142857a36.571429 36.571429 0 0 1 32.694857 0l146.285714 73.142857A36.571429 36.571429 0 0 1 530.285714 237.714286v164.571428c0 4.077714-0.676571 8.045714-1.956571 11.776l20.242286 11.574857zM585.142857 585.142857l128 64v-134.985143l-128-64V585.142857z m-155.355428-185.270857a18.285714 18.285714 0 1 1 18.139428-31.744L493.714286 394.276571v-126.976l-128 64V466.285714l96.146285-48.091428-32.073142-18.322286zM365.714286 594.285714V658.285714a18.285714 18.285714 0 0 1-36.571429 0v-64l-116.699428 58.349715L347.428571 720.128l134.985143-67.492571L365.714286 594.285714z m384 54.857143l128-64v-134.985143l-128 64V649.142857zM731.428571 347.428571l-134.985142 67.492572L731.428571 482.413714l134.985143-67.492571L731.428571 347.428571z m-402.285714-16.128l-128-64V402.285714l128 64v-134.985143z m153.270857-99.236571L347.428571 164.571429l-134.985142 67.492571L347.428571 299.556571l134.985143-67.492571zM493.714286 822.857143v-134.985143l-128 64V886.857143l128-64z m-164.571429-70.985143l-128-64V822.857143l128 64v-134.985143z" fill="#005DBA" /><path d="M585.142857 585.142857l128 64v-134.985143l-128-64V585.142857z m-155.355428-185.270857a18.285714 18.285714 0 1 1 18.139428-31.744L493.714286 394.276571v-126.976l-128 64V466.285714l96.146285-48.091428-32.073142-18.322286zM365.714286 594.285714V658.285714a18.285714 18.285714 0 0 1-36.571429 0v-64l-116.699428 58.349715L347.428571 720.128l134.985143-67.492571L365.714286 594.285714z m384 54.857143l128-64v-134.985143l-128 64V649.142857zM731.428571 347.428571l-134.985142 67.492572L731.428571 482.413714l134.985143-67.492571L731.428571 347.428571z m-402.285714-16.128l-128-64V402.285714l128 64v-134.985143z m153.270857-99.236571L347.428571 164.571429l-134.985142 67.492571L347.428571 299.556571l134.985143-67.492571zM493.714286 822.857143v-134.985143l-128 64V886.857143l128-64z m-164.571429-70.985143l-128-64V822.857143l128 64v-134.985143z" fill="#FFFFFF" /></svg>