<?xml version="1.0" standalone="no"?>
<!DOCTYPE svg PUBLIC "-//W3C//DTD SVG 20010904//EN"
 "http://www.w3.org/TR/2001/REC-SVG-20010904/DTD/svg10.dtd">
<svg version="1.0" xmlns="http://www.w3.org/2000/svg"
 width="256.000000pt" height="256.000000pt" viewBox="0 0 256.000000 256.000000"
 preserveAspectRatio="xMidYMid meet">
<metadata>
Created by potrace 1.14, written by Peter Selinger 2001-2017
</metadata>
<g transform="translate(0.000000,256.000000) scale(0.100000,-0.100000)"
fill="#000000" stroke="none">
<path d="M1712 2492 c-207 -116 -302 -179 -309 -205 -14 -49 -8 -384 7 -402
23 -28 310 -195 336 -195 26 0 283 148 323 186 24 23 25 25 25 218 1 219 1
218 -81 261 -21 11 -83 47 -138 81 -125 76 -127 76 -163 56z"/>
<path d="M716 2134 c-46 -45 9 -118 66 -88 26 14 33 29 28 64 -4 37 -66 53
-94 24z"/>
<path d="M947 2132 c-35 -38 -8 -92 45 -92 45 0 68 51 42 89 -19 26 -65 28
-87 3z"/>
<path d="M1174 2126 c-35 -54 36 -116 84 -73 26 24 28 44 6 75 -21 31 -69 30
-90 -2z"/>
<path d="M545 2015 c-19 -18 -24 -31 -20 -48 15 -47 61 -61 95 -27 34 34 20
80 -27 95 -17 4 -30 -1 -48 -20z"/>
<path d="M367 1903 c-48 -54 20 -127 76 -83 39 31 23 85 -29 96 -22 4 -34 1
-47 -13z"/>
<path d="M1952 1738 c-30 -15 -38 -52 -18 -83 30 -45 99 -24 99 30 0 18 -9 36
-23 47 -25 20 -27 21 -58 6z"/>
<path d="M175 1594 c-88 -53 -163 -101 -167 -108 -4 -6 -8 -99 -8 -207 0 -190
1 -196 23 -216 12 -11 88 -59 169 -108 116 -68 151 -85 170 -80 30 10 286 162
315 187 20 19 21 28 22 207 1 131 -3 193 -11 210 -14 26 -310 211 -338 211 -8
0 -87 -43 -175 -96z"/>
<path d="M1115 1600 c-82 -49 -158 -99 -167 -111 -16 -19 -18 -45 -18 -213 0
-187 1 -193 23 -213 31 -29 311 -193 328 -193 8 0 43 18 79 39 36 22 104 62
152 91 48 28 95 61 103 73 22 31 22 382 0 413 -16 24 -313 204 -335 204 -8 0
-82 -40 -165 -90z"/>
<path d="M2156 1665 c-20 -14 -39 -25 -41 -25 -13 0 -223 -134 -237 -151 -16
-19 -18 -45 -18 -208 0 -145 3 -191 14 -207 8 -11 67 -51 131 -90 64 -38 133
-79 154 -91 20 -12 43 -22 52 -23 17 0 292 162 327 193 21 20 22 26 22 217 0
191 -1 197 -22 217 -34 31 -310 193 -329 193 -9 0 -33 -11 -53 -25z"/>
<path d="M782 1324 c-40 -27 -18 -104 29 -104 29 0 59 31 59 60 0 28 -30 60
-55 60 -6 0 -21 -7 -33 -16z"/>
<path d="M1712 1324 c-32 -22 -30 -69 4 -91 23 -15 29 -15 52 -2 40 22 47 55
17 85 -28 28 -42 30 -73 8z"/>
<path d="M540 910 c-23 -23 -19 -58 10 -82 28 -23 78 -6 86 28 15 58 -53 97
-96 54z"/>
<path d="M786 865 c-92 -48 -299 -180 -310 -198 -19 -32 -16 -388 3 -411 24
-28 311 -196 336 -196 13 0 56 20 97 44 40 25 107 65 148 89 42 25 82 52 90
62 11 13 14 59 14 211 0 179 -2 196 -20 214 -19 19 -285 181 -315 192 -9 4
-28 0 -43 -7z"/>
<path d="M2131 747 c-50 -26 -45 -90 9 -102 59 -13 93 52 50 95 -23 23 -27 24
-59 7z"/>
<path d="M1934 615 c-35 -54 20 -115 72 -80 13 8 24 19 25 23 0 4 2 15 4 24 4
23 -31 58 -60 58 -15 0 -31 -10 -41 -25z"/>
<path d="M1305 508 c-29 -22 -32 -44 -9 -76 29 -42 109 -12 99 39 -10 49 -52
67 -90 37z"/>
<path d="M1780 517 c-31 -16 -43 -59 -23 -86 17 -25 65 -28 87 -5 44 43 -9
118 -64 91z"/>
<path d="M1523 494 c-15 -24 -15 -29 -2 -53 20 -36 71 -41 93 -9 21 29 20 51
-2 71 -28 26 -69 21 -89 -9z"/>
</g>
</svg>
